<svg width="61" height="39" viewBox="0 0 61 39" fill="none" xmlns="http://www.w3.org/2000/svg">
<path d="M1 5.8C1 5.8 4.6 -5 7.6 5.8M7.6 5.8C10.6 16.6 7.6 32.8 7.6 32.8C7.6 32.8 1 6.4 7.6 5.8ZM7.6 5.8C14.2 5.2 48.5722 23.9959 49.6 5.79999" stroke="#00163A" stroke-width="2"/>
<path d="M18.6907 27.3103C18.6907 27.656 18.6116 27.9812 18.4534 28.2859C18.2952 28.5906 18.0813 28.8542 17.8118 29.0769C17.5422 29.2996 17.2258 29.4753 16.8625 29.6042C16.4993 29.7332 16.1125 29.7976 15.7024 29.7976C15.427 29.7976 15.1487 29.7595 14.8674 29.6833C14.5862 29.6072 14.3167 29.4812 14.0588 29.3054C13.801 29.1296 13.5579 28.8982 13.3293 28.6111C13.1008 28.324 12.9016 27.9724 12.7317 27.5564C12.5676 27.1404 12.4358 26.6541 12.3362 26.0974C12.2424 25.5349 12.1956 24.8904 12.1956 24.1638C12.1956 23.4783 12.2424 22.8718 12.3362 22.3445C12.4358 21.8171 12.5676 21.3572 12.7317 20.9646C12.9016 20.572 13.0979 20.2439 13.3206 19.9802C13.5432 19.7107 13.7805 19.4939 14.0325 19.3298C14.2903 19.1599 14.554 19.0398 14.8235 18.9695C15.0989 18.8992 15.3684 18.864 15.6321 18.864C16.0247 18.864 16.3967 18.9285 16.7483 19.0574C17.0999 19.1804 17.4075 19.365 17.6711 19.6111C17.9348 19.8572 18.1428 20.1619 18.2952 20.5251C18.4534 20.8826 18.5325 21.2957 18.5325 21.7644C18.5325 22.1863 18.4446 22.614 18.2688 23.0476C18.0989 23.4753 17.844 23.8826 17.5042 24.2693C17.1643 24.6501 16.7424 24.9988 16.2385 25.3152C15.7405 25.6257 15.1663 25.8718 14.5159 26.0535C14.551 26.4167 14.6008 26.7478 14.6653 27.0466C14.7356 27.3455 14.8206 27.6003 14.9202 27.8113C15.0256 28.0222 15.1458 28.1863 15.2805 28.3035C15.4211 28.4207 15.5823 28.4792 15.7639 28.4792C15.8811 28.4734 15.9924 28.4529 16.0979 28.4177C16.1917 28.3884 16.2854 28.3416 16.3792 28.2771C16.4788 28.2126 16.5608 28.1189 16.6252 27.9958C16.4729 27.9255 16.3557 27.8347 16.2737 27.7234C16.1917 27.6121 16.1301 27.5066 16.0891 27.407C16.0422 27.2898 16.0159 27.1667 16.01 27.0378C16.01 26.7566 16.0657 26.5281 16.177 26.3523C16.2883 26.1765 16.4202 26.0388 16.5725 25.9392C16.7249 25.8396 16.8801 25.7722 17.0383 25.7371C17.1965 25.696 17.3225 25.6755 17.4163 25.6755C17.5159 25.6755 17.636 25.696 17.7766 25.7371C17.9231 25.7781 18.0637 25.8572 18.1985 25.9744C18.3333 26.0916 18.4475 26.2585 18.5413 26.4753C18.6409 26.6863 18.6907 26.9646 18.6907 27.3103ZM16.5198 21.782C16.5198 21.571 16.4993 21.3718 16.4583 21.1843C16.4231 20.991 16.3674 20.824 16.2913 20.6833C16.2209 20.5427 16.1301 20.4314 16.0188 20.3494C15.9133 20.2615 15.7903 20.2175 15.6497 20.2175C15.4094 20.2175 15.2131 20.3289 15.0608 20.5515C14.9084 20.7683 14.7854 21.0583 14.6917 21.4216C14.5979 21.7849 14.5334 22.2039 14.4983 22.6785C14.4631 23.1531 14.4456 23.6482 14.4456 24.1638V24.8054C14.7444 24.6472 15.0198 24.4597 15.2717 24.2429C15.5295 24.0261 15.7493 23.7888 15.9309 23.531C16.1184 23.2673 16.262 22.989 16.3616 22.696C16.467 22.4031 16.5198 22.0984 16.5198 21.782ZM25.3616 24.6121C25.3616 24.9636 25.3586 25.2712 25.3528 25.5349C25.3469 25.7927 25.3381 26.03 25.3264 26.2468C25.3206 26.4578 25.3088 26.6599 25.2913 26.8533C25.2795 27.0408 25.2649 27.2429 25.2473 27.4597C25.2297 27.6707 25.2092 27.9109 25.1858 28.1804C25.1624 28.4441 25.136 28.7546 25.1067 29.1121L23.1292 29.1296C23.2112 28.1863 23.2698 27.281 23.3049 26.4138C23.3459 25.5408 23.3665 24.6765 23.3665 23.821C23.3665 23.0066 23.2903 22.4119 23.1379 22.0369C22.9915 21.6619 22.7659 21.4744 22.4612 21.4744C22.344 21.5095 22.2297 21.5886 22.1184 21.7117C22.0188 21.8171 21.9163 21.9783 21.8108 22.1951C21.7112 22.4119 21.6233 22.7136 21.5471 23.1003C21.5354 23.3875 21.5295 23.6716 21.5295 23.9529C21.5295 24.2283 21.5295 24.5007 21.5295 24.7703C21.5295 25.0867 21.5295 25.4089 21.5295 25.7371C21.5354 26.0652 21.5383 26.4167 21.5383 26.7917C21.5442 27.1667 21.55 27.571 21.5559 28.0046C21.5618 28.4324 21.5706 28.9041 21.5823 29.4197L19.5784 29.3757C19.6194 28.7019 19.6545 28.1013 19.6838 27.574C19.7131 27.0466 19.7366 26.5603 19.7542 26.115C19.7776 25.6697 19.7922 25.2478 19.7981 24.8494C19.8098 24.4509 19.8157 24.0408 19.8157 23.6189C19.8157 23.3376 19.8127 23.0505 19.8069 22.7576C19.8069 22.4587 19.801 22.1394 19.7893 21.7996C19.7834 21.4597 19.7747 21.0964 19.7629 20.7097C19.7512 20.3171 19.7395 19.8894 19.7278 19.4265L21.7229 19.4617L21.6702 20.2878C21.8401 19.9539 22.0188 19.696 22.2063 19.5144C22.3938 19.3328 22.5696 19.2009 22.7336 19.1189C22.8977 19.0369 23.0354 18.99 23.1467 18.9783C23.2639 18.9666 23.3372 18.9607 23.3665 18.9607C23.5422 18.9607 23.7092 18.9841 23.8674 19.031C24.0315 19.0779 24.1838 19.1658 24.3245 19.2947C24.4709 19.4236 24.6028 19.6023 24.72 19.8308C24.843 20.0593 24.9485 20.3552 25.0364 20.7185C25.1946 20.2732 25.3909 19.9304 25.6252 19.6902C25.8596 19.45 26.0881 19.2771 26.3108 19.1716C26.5393 19.0603 26.7385 18.9988 26.9084 18.9871C27.0842 18.9695 27.1868 18.9607 27.2161 18.9607C27.5911 18.9607 27.9075 19.075 28.1653 19.3035C28.4231 19.532 28.6282 19.8806 28.7805 20.3494C28.9329 20.8181 29.0413 21.407 29.1057 22.116C29.176 22.825 29.2112 23.657 29.2112 24.6121C29.2112 24.9285 29.1965 25.2947 29.1672 25.7107C29.1379 26.1267 29.0999 26.5574 29.053 27.0027C29.0061 27.4421 28.9563 27.8787 28.9036 28.3123C28.8508 28.7458 28.804 29.1326 28.7629 29.4724L26.7854 29.4021C26.885 28.7751 26.9612 28.1804 27.0139 27.6179C27.0725 27.0496 27.1165 26.5457 27.1458 26.1062C27.175 25.5964 27.1926 25.1218 27.1985 24.6824C27.1985 24.1257 27.1838 23.6453 27.1545 23.241C27.1311 22.8367 27.0842 22.5056 27.0139 22.2478C26.9436 21.9841 26.8469 21.7908 26.7239 21.6677C26.6008 21.5388 26.4456 21.4744 26.2581 21.4744C26.135 21.5095 26.0178 21.5769 25.9065 21.6765C25.8069 21.7585 25.7014 21.8845 25.5901 22.0544C25.4846 22.2185 25.3909 22.4412 25.3088 22.7224C25.344 23.2615 25.3616 23.8914 25.3616 24.6121ZM32.8586 15.9724C32.7883 16.74 32.7268 17.5017 32.6741 18.2576C32.6213 19.0076 32.5745 19.7634 32.5334 20.5251C32.7327 20.1677 32.9465 19.8923 33.175 19.699C33.4036 19.4998 33.6174 19.3533 33.8167 19.2595C34.051 19.1541 34.2795 19.0896 34.5022 19.0662C34.9241 19.0662 35.2991 19.1541 35.6272 19.3298C35.9553 19.5056 36.2307 19.8074 36.4534 20.2351C36.6819 20.657 36.8547 21.2224 36.9719 21.9314C37.0891 22.6345 37.1477 23.5164 37.1477 24.5769C37.1477 25.5554 37.054 26.3787 36.8665 27.0466C36.6848 27.7087 36.4475 28.2449 36.1545 28.655C35.8674 29.0593 35.5452 29.3494 35.1877 29.5251C34.8362 29.7068 34.4875 29.7976 34.1418 29.7976C34.1067 29.7976 34.0276 29.7888 33.9045 29.7712C33.7874 29.7595 33.6438 29.7156 33.4739 29.6394C33.304 29.5691 33.1223 29.4607 32.929 29.3142C32.7356 29.1677 32.551 28.9626 32.3752 28.699V29.6658L30.3977 29.6306C30.4504 28.7751 30.4856 27.9226 30.5032 27.073C30.5266 26.2234 30.5383 25.3738 30.5383 24.5242C30.5383 23.0945 30.5149 21.6765 30.468 20.2703C30.4211 18.8582 30.3655 17.4373 30.301 16.0076L32.8586 15.9724ZM33.4915 28.1716C33.5208 28.1833 33.55 28.1892 33.5793 28.1892C33.6145 28.1892 33.6497 28.1892 33.6848 28.1892C33.843 28.1892 34.0071 28.1365 34.177 28.031C34.3528 27.9197 34.511 27.7263 34.6516 27.4509C34.7922 27.1755 34.9094 26.8035 35.0032 26.3347C35.0969 25.8601 35.1438 25.2566 35.1438 24.5242C35.1438 23.8679 35.1116 23.323 35.0471 22.8894C34.9885 22.45 34.9065 22.0984 34.801 21.8347C34.6956 21.571 34.5725 21.3865 34.4319 21.281C34.2913 21.1697 34.1448 21.114 33.9924 21.114C33.8342 21.114 33.6877 21.158 33.553 21.2458C33.4241 21.3279 33.3069 21.4392 33.2014 21.5798C33.0959 21.7146 32.9993 21.8699 32.9114 22.0457C32.8293 22.2214 32.7561 22.3972 32.6917 22.573C32.6272 22.7429 32.5715 22.9099 32.5247 23.074C32.4836 23.2322 32.4514 23.3669 32.428 23.4783C32.3928 24.6326 32.3752 25.7781 32.3752 26.9148C32.51 27.196 32.6448 27.4187 32.7795 27.5828C32.9143 27.7468 33.0344 27.8728 33.1399 27.9607C33.2629 28.0662 33.3801 28.1365 33.4915 28.1716ZM42.5178 29.2878C42.5295 29.0535 42.5413 28.8308 42.553 28.6199C42.5706 28.4031 42.5881 28.1951 42.6057 27.9958C42.4065 28.3474 42.1926 28.6169 41.9641 28.8044C41.7415 28.9919 41.5334 29.1326 41.3401 29.2263C41.1116 29.3318 40.886 29.3962 40.6633 29.4197C40.2297 29.4197 39.8518 29.3113 39.5295 29.0945C39.2073 28.8777 38.9407 28.5701 38.7297 28.1716C38.5188 27.7732 38.3606 27.2957 38.2551 26.739C38.1555 26.1765 38.1057 25.5496 38.1057 24.8582C38.1057 23.8914 38.135 22.9539 38.1936 22.0457C38.2581 21.1375 38.3606 20.2468 38.5012 19.3738L40.7336 19.6199C40.593 20.3171 40.4846 20.9412 40.4084 21.4919C40.3381 22.0369 40.2854 22.5027 40.2502 22.8894C40.2092 23.3406 40.1858 23.7332 40.1799 24.0671C40.1799 24.6238 40.1975 25.1101 40.2327 25.5261C40.2678 25.9363 40.3293 26.2791 40.4172 26.5544C40.511 26.824 40.637 27.0261 40.7952 27.1609C40.9534 27.2957 41.1555 27.363 41.4016 27.363C41.5715 27.3337 41.7385 27.2166 41.9026 27.0115C41.9729 26.9236 42.0461 26.8123 42.1223 26.6775C42.1985 26.5369 42.2747 26.3669 42.3508 26.1677C42.427 25.9685 42.5002 25.7341 42.5706 25.4646C42.6409 25.1951 42.7083 24.8816 42.7727 24.5242C42.7844 24.1785 42.7903 23.8357 42.7903 23.4958C42.7903 23.1501 42.7903 22.7781 42.7903 22.3796C42.7903 21.9578 42.7903 21.4978 42.7903 20.9998C42.7903 20.5017 42.7844 19.9421 42.7727 19.321L44.7678 19.3562C44.7385 19.8015 44.7151 20.2146 44.6975 20.5955C44.6799 20.9705 44.6653 21.325 44.6536 21.6589C44.6477 21.9871 44.6418 22.2976 44.636 22.5906C44.6301 22.8835 44.6272 23.1677 44.6272 23.4431C44.6272 23.865 44.6301 24.2781 44.636 24.6824C44.6477 25.0867 44.6624 25.5173 44.6799 25.9744C44.6975 26.4255 44.7151 26.9236 44.7327 27.4685C44.7561 28.0076 44.7795 28.6257 44.803 29.323L42.5178 29.2878ZM52.678 29.2175L50.2698 29.5955C50.0881 29.0681 49.8977 28.5554 49.6985 28.0574C49.4993 27.5535 49.2883 27.0525 49.0657 26.5544C48.8958 27.0056 48.7346 27.4714 48.5823 27.9519C48.4358 28.4265 48.2893 28.9275 48.1428 29.4548L45.4973 29.1824C45.9661 28.3445 46.4143 27.5476 46.842 26.7917C47.2756 26.03 47.6917 25.2654 48.0901 24.4978C47.6858 23.6833 47.261 22.8806 46.8157 22.0896C46.3704 21.2927 45.9133 20.4783 45.4446 19.6462L47.9846 19.532C48.1487 20.0593 48.3157 20.5662 48.4856 21.0525C48.6614 21.5388 48.8489 22.0105 49.0481 22.4675C49.2473 22.0281 49.4348 21.574 49.6106 21.1052C49.7922 20.6365 49.9622 20.1501 50.1204 19.6462L52.5901 19.8923C52.0569 20.6951 51.5735 21.4626 51.1399 22.1951C50.7063 22.9275 50.3137 23.6658 49.9622 24.4099C50.3665 25.2068 50.7942 25.9978 51.2454 26.783C51.7024 27.5681 52.1799 28.3796 52.678 29.2175Z" fill="#00163A"/>
</svg>
